<?xml version="1.0" encoding="UTF-8" standalone="no"?>
<!-- Generator: Adobe Illustrator 16.0.0, SVG Export Plug-In . SVG Version: 6.00 Build 0)  -->

<svg
   xmlns:dc="http://purl.org/dc/elements/1.1/"
   xmlns:cc="http://creativecommons.org/ns#"
   xmlns:rdf="http://www.w3.org/1999/02/22-rdf-syntax-ns#"
   xmlns:svg="http://www.w3.org/2000/svg"
   xmlns="http://www.w3.org/2000/svg"
   xmlns:sodipodi="http://sodipodi.sourceforge.net/DTD/sodipodi-0.dtd"
   xmlns:inkscape="http://www.inkscape.org/namespaces/inkscape"
   version="1.1"
   id="Layer_1"
   x="0px"
   y="0px"
   width="512px"
   height="512px"
   viewBox="0 0 512 512"
   enable-background="new 0 0 512 512"
   xml:space="preserve"
   inkscape:version="0.91 r13725"
   sodipodi:docname="bullets.svg"
   inkscape:export-filename="D:\xampp\htdocs\images\bullet.png"
   inkscape:export-xdpi="90"
   inkscape:export-ydpi="90"><metadata
     id="metadata9"><rdf:RDF><cc:Work
         rdf:about=""><dc:format>image/svg+xml</dc:format><dc:type
           rdf:resource="http://purl.org/dc/dcmitype/StillImage" /></cc:Work></rdf:RDF></metadata><defs
     id="defs7" /><sodipodi:namedview
     pagecolor="#ffffff"
     bordercolor="#666666"
     borderopacity="1"
     objecttolerance="10"
     gridtolerance="10"
     guidetolerance="10"
     inkscape:pageopacity="0"
     inkscape:pageshadow="2"
     inkscape:window-width="1768"
     inkscape:window-height="1045"
     id="namedview5"
     showgrid="false"
     inkscape:zoom="0.921875"
     inkscape:cx="-15.52051"
     inkscape:cy="365.21914"
     inkscape:window-x="362"
     inkscape:window-y="130"
     inkscape:window-maximized="0"
     inkscape:current-layer="Layer_1" /><path
     d="m 171.15859,486.456 c -1,2.469 -6.646,0.25 -8.438,1.927 1.938,4.833 8.458,3.896 8.438,9.073 -0.063,5.906 -14.167,10.073 -22,11.656 -18.625,3.688 -42.667,4.01 -62.103997,0 -8.521,-1.813 -21.542,-6.417 -21.979,-11.656 -0.458,-5.5 6.25,-5.511 8.417,-9.073 -1.792,-1.677 -7.438,0.542 -8.417,-1.927 0,-63.323 0,-133.969 0,-199.896 0,-9.396 -1.75,-20.365 0,-28.396 0.979,-4.938 5.563,-9.635 8.417,-14.25 3.042,-5 5.333,-9.906 8.333,-14.313 0,-8.073 0,-17.635 0,-27.104 0,-9.563 -1.542,-20.167 0,-27.188 0.729,-2.927 2.417,-3.479 3.292,-5.813 4.457997,-52.511 6.020997,-110.270993 22.624997,-151.999993 2.542,-6.438 5.479,-11.4899996 9.729,-17.46899955 0.563,-0.135 0.604,0.25 0.646,0.635 0.521,0.125 0.625,0.64599995 1.333,0.64599995 13.333,21.0729996 18.625,46.8329996 23.229,76.9689996 3.313,21.417 5.396,44.457993 7.104,67.937993 0.667,8.021 -0.542,16.802 1.313,23.281 0.854,2.729 2.396,3.052 3.208,5.813 0,8.281 0,17.625 0,27.188 0,8.948 -1.646,19.24 0,27.104 0.958,4.573 5.646,9.646 8.417,14.313 2.896,4.656 7.479,10.115 8.438,14.25 1.833,7.886 0,19.281 0,29.063 -0.001,65.301 -0.001,134.228 -0.001,199.229 z"
     id="path3"
     inkscape:connector-curvature="0"
     style="clip-rule:evenodd;fill:#ffffff;fill-opacity:1;fill-rule:evenodd" /><path
     d="m 309.9378,485.37152 c -1,2.469 -6.646,0.25 -8.43799,1.927 1.93799,4.833 8.45799,3.896 8.43799,9.073 -0.063,5.906 -14.16699,10.073 -21.99999,11.656 -18.625,3.688 -42.667,4.01 -62.104,0 -8.521,-1.813 -21.542,-6.417 -21.979,-11.656 -0.458,-5.5 6.25,-5.511 8.417,-9.073 -1.792,-1.677 -7.438,0.542 -8.417,-1.927 0,-63.323 0,-133.969 0,-199.896 0,-9.396 -1.75,-20.365 0,-28.396 0.979,-4.938 5.563,-9.635 8.417,-14.25 3.042,-5 5.333,-9.906 8.333,-14.313 0,-8.073 0,-17.635 0,-27.104 0,-9.563 -1.542,-20.167 0,-27.188 0.729,-2.927 2.417,-3.479 3.292,-5.813 4.458,-52.511 6.021,-110.27099 22.625,-151.99999 2.542,-6.438001 5.479,-11.4900005 9.729,-17.4690005 0.563,-0.135 0.604,0.25 0.646,0.635 0.521,0.125 0.625,0.646 1.333,0.646 13.333,21.0730005 18.625,46.8330005 23.229,76.9690035 3.313,21.416997 5.396,44.457987 7.104,67.937987 0.667,8.021 -0.542,16.802 1.313,23.281 0.854,2.729 2.396,3.052 3.208,5.813 0,8.281 0,17.625 0,27.188 0,8.948 -1.646,19.24 0,27.104 0.958,4.573 5.646,9.646 8.417,14.313 2.89599,4.656 7.47899,10.115 8.43799,14.25 1.833,7.886 0,19.281 0,29.063 -0.001,65.301 -0.001,134.228 -0.001,199.229 z"
     id="path3-1"
     inkscape:connector-curvature="0"
     style="clip-rule:evenodd;fill:#ffffff;fill-opacity:1;fill-rule:evenodd" /><path
     d="m 450.31069,485.37152 c -1,2.469 -6.646,0.25 -8.43799,1.927 1.93799,4.833 8.45799,3.896 8.43799,9.073 -0.063,5.906 -14.16699,10.073 -21.99999,11.656 -18.625,3.688 -42.667,4.01 -62.104,0 -8.521,-1.813 -21.542,-6.417 -21.979,-11.656 -0.458,-5.5 6.25,-5.511 8.417,-9.073 -1.792,-1.677 -7.438,0.542 -8.417,-1.927 0,-63.323 0,-133.969 0,-199.896 0,-9.396 -1.75,-20.365 0,-28.396 0.979,-4.938 5.563,-9.635 8.417,-14.25 3.042,-5 5.333,-9.906 8.333,-14.313 0,-8.073 0,-17.635 0,-27.104 0,-9.563 -1.542,-20.167 0,-27.188 0.729,-2.927 2.417,-3.479 3.292,-5.813 4.458,-52.511 6.021,-110.270993 22.625,-151.99999 2.542,-6.438001 5.479,-11.4900007 9.729,-17.4690007 0.563,-0.135 0.604,0.25 0.646,0.635 0.521,0.125 0.625,0.646 1.333,0.646 13.333,21.0730007 18.625,46.8329977 23.229,76.9690077 3.313,21.416993 5.396,44.457983 7.104,67.937983 0.667,8.021 -0.542,16.802 1.313,23.281 0.854,2.729 2.396,3.052 3.208,5.813 0,8.281 0,17.625 0,27.188 0,8.948 -1.646,19.24 0,27.104 0.958,4.573 5.646,9.646 8.417,14.313 2.89599,4.656 7.47899,10.115 8.43799,14.25 1.833,7.886 0,19.281 0,29.063 -10e-4,65.301 -10e-4,134.228 -10e-4,199.229 z"
     id="path3-1-5"
     inkscape:connector-curvature="0"
     style="clip-rule:evenodd;fill:#ffffff;fill-opacity:1;fill-rule:evenodd" /></svg>