<?xml version="1.0" encoding="UTF-8" standalone="no"?>
<svg xmlns:rdf="http://www.w3.org/1999/02/22-rdf-syntax-ns#" xmlns="http://www.w3.org/2000/svg" height="512" width="512" version="1.1" xmlns:cc="http://creativecommons.org/ns#" xmlns:xlink="http://www.w3.org/1999/xlink" viewBox="0 0 512 512" xmlns:dc="http://purl.org/dc/elements/1.1/">
	<g id="editable">
		<path d="m257.14-0.85714c-41.71 37.421-88.81 70.795-106.43 200.72l0.00001 135.71c17.676 97.239 33.209 173.04 41.429 175.71h126.43c28.228-74.181 27.752-119.66 40.714-178.57v-140c-17.81-99.444-40.59-144.04-102.14-193.57z" fill-rule="evenodd"/>
	</g>
	<g>
		<g fill="#ffffff" fill-rule="evenodd">
			<path d="m209.1 186.73v61.619l-24.496 33.335v-125.26z"/>
			<path d="m304.43 186.48v61.619l24.496 33.335v-125.26z"/>
			<path d="m247.99 135.72v48.487h-32.325l-18.737-32.453z"/>
			<path d="m262.72 135.84v48.487h32.325l18.737-32.453z"/>
		</g>
		<ellipse rx="18.435" ry="21.213" stroke="#ffffff" cy="364.01" cx="192.69" stroke-width="6" fill="none"/>
		<ellipse rx="18.435" ry="21.213" stroke="#ffffff" cy="363" cx="320.22" stroke-width="6" fill="none"/>
	</g>
</svg>
