<?xml version="1.0" encoding="UTF-8" standalone="no"?>
<svg xmlns:rdf="http://www.w3.org/1999/02/22-rdf-syntax-ns#" xmlns="http://www.w3.org/2000/svg" height="512" width="512" version="1.1" xmlns:cc="http://creativecommons.org/ns#" xmlns:xlink="http://www.w3.org/1999/xlink" viewBox="0 0 511.99999 511.99999" xmlns:dc="http://purl.org/dc/elements/1.1/">
	<g fill="#000000">
		<path d="m303.68 10.185v-9.4275h-83.591v9.7418h-32.368c-17.61 10.643-31.22 23.183-33 41.324v78.944l9.671 14.221v189.54l-9.555 14.221v82.884l9.3328 14.444v50.878l18.834 13.827h157.6l18.384-13.984v-50.987l9.349-13.67v-84.058l-9.3971-13.444v-190.27l9.6328-13.67v-78.563c-1.57-18.204-15.36-30.923-33.61-41.631z" fill-rule="evenodd" stroke="#000000" stroke-width="1.1588px"/>
		<rect height="9.5061" width="19.012" y="153.8" x="363.62"/>
		<rect height="9.5061" width="19.012" y="153.96" x="140.78"/>
	</g>
	<g>
		<g stroke="#ffffff" fill="none">
			<rect height="305.82" width="162.94" stroke-linecap="square" y="184.07" x="180.36" stroke-width="4.6286"/>
			<path d="m215.28 20.551-32 127.99" stroke-width="4.6352"/>
			<path d="m306.83 20.551 32 127.99" stroke-width="4.6352"/>
		</g>
		<path d="m169.97 149.24h183.21l-11.627 27.34h-159.01z" fill-rule="evenodd" fill="#ffffff"/>
	</g>
</svg>
