<?xml version="1.0" encoding="UTF-8" standalone="no"?>
<svg xmlns:rdf="http://www.w3.org/1999/02/22-rdf-syntax-ns#" xmlns="http://www.w3.org/2000/svg" height="512" width="512" version="1.1" xmlns:cc="http://creativecommons.org/ns#" xmlns:xlink="http://www.w3.org/1999/xlink" viewBox="0 0 511.99999 511.99999" xmlns:dc="http://purl.org/dc/elements/1.1/">
	<g id="editable" fill="#000000">
		<path d="m255.8 16.498c-195 24.643-234.62 131.61-239.69 238.54l238.54 257.73 241.62-258.49c-5.41-139.19-75.62-225.34-240.47-237.78zm-2 206.91c26.948 0.007 51.42 14.872 75.416 32.594l-75.39 189.83-68.34-189.83c24.897-23.617 47.353-32.599 68.312-32.594zm-171.92 0.20313c20.215 0.38129 44.263 7.789 71.52 21.08l77.48 203.65-197.52-203.65c11.93-14.82 28.312-21.46 48.527-21.08zm351.74 0.39c19.492 0.1503 31.21 9.7005 35.527 28.201l-186.03 193.63 68.338-193.63c35.412-19.102 62.676-28.351 82.168-28.201z" fill-rule="evenodd"/>
	</g>
</svg>
